<svg xmlns="http://www.w3.org/2000/svg" xmlns:xlink="http://www.w3.org/1999/xlink" width="397" zoomAndPan="magnify" viewBox="0 0 297.75 419.249996" height="559" preserveAspectRatio="xMidYMid meet" version="1.0"><defs><clipPath id="a995c8e343"><path d="M 4.433594 4.097656 L 192.972656 4.097656 L 192.972656 384.15625 L 4.433594 384.15625 Z M 4.433594 4.097656 " clip-rule="nonzero"/></clipPath><clipPath id="51222b5b09"><path d="M 67.238281 9.832031 C 76.863281 6.371094 87.871094 4.097656 98.640625 4.097656 C 109.414062 4.097656 119.78125 6.042969 129.332031 9.507812 C 129.535156 9.617188 129.738281 9.617188 129.941406 9.726562 C 165.816406 23.582031 192.242188 60.171875 192.75 105.949219 L 192.75 384.402344 L 4.433594 384.402344 L 4.433594 106.15625 C 4.941406 59.957031 30.957031 23.367188 67.238281 9.832031 Z M 67.238281 9.832031 " clip-rule="nonzero"/></clipPath><clipPath id="136439b75b"><rect x="0" width="200" y="0" height="391"/></clipPath></defs><g transform="matrix(1, 0, 0, 1, 50, 15)"><g clip-path="url(#136439b75b)"><g clip-path="url(#a995c8e343)"><g clip-path="url(#51222b5b09)"><path stroke-linecap="butt" transform="matrix(0.748165, 0, 0, 0.748165, 4.433137, 4.09618)" fill="none" stroke-linejoin="miter" d="M 83.945533 7.666555 C 96.810335 3.040657 111.523408 0.00197352 125.917994 0.00197352 C 140.317801 0.00197352 154.174613 2.602084 166.940215 7.233204 C 167.211712 7.379395 167.483209 7.379395 167.754707 7.525586 C 215.705333 26.044844 251.026107 74.950933 251.704851 136.13706 L 251.704851 508.318293 L 0.000610246 508.318293 L 0.000610246 136.413778 C 0.679354 74.663772 35.451912 25.757683 83.945533 7.666555 Z M 83.945533 7.666555 " stroke="#f4c68a" stroke-width="2" stroke-opacity="1" stroke-miterlimit="4"/></g></g></g></g></svg>